<svg xmlns="http://www.w3.org/2000/svg" version="1.1" xmlns:xlink="http://www.w3.org/1999/xlink" width="1012.6876871094597" height="200" viewBox="0.23030303418636322 12.120769500732422 255.8325653076172 42.500404357910156"><path d="M15.80 37.56L15.80 37.56Q15.72 37.76 15.52 37.96Q15.32 38.16 15.08 38.22Q14.84 38.28 14.60 38.14Q14.36 38 14.16 37.56L14.16 37.56Q13.36 36.12 12.78 34.90Q12.20 33.68 11.72 32.34Q11.24 31 10.76 29.38Q10.28 27.76 9.64 25.52L9.64 25.52Q9.04 27.32 8.38 29.32Q7.72 31.32 7.02 33.22Q6.32 35.12 5.60 36.76Q4.88 38.40 4.20 39.44L4.20 39.44Q3.76 40.04 3.46 40.24Q3.16 40.44 2.94 40.38Q2.72 40.32 2.58 40.08Q2.44 39.84 2.36 39.64L2.36 39.64Q2 36.16 1.74 32.96Q1.48 29.76 1.24 27.24Q1 24.72 0.76 23.06Q0.52 21.40 0.24 21.04L0.24 21.04Q0.16 20.32 0.74 19.96Q1.32 19.60 1.88 19.80L1.88 19.80Q2.04 19.84 2.20 21.12Q2.36 22.40 2.50 24.30Q2.64 26.20 2.78 28.44Q2.92 30.68 3.06 32.58Q3.20 34.48 3.30 35.74Q3.40 37 3.52 37L3.52 37Q3.64 37.28 4.02 36.68Q4.40 36.08 4.90 34.90Q5.40 33.72 5.98 32.10Q6.56 30.48 7.14 28.76Q7.72 27.04 8.24 25.34Q8.76 23.64 9.16 22.28L9.16 22.28Q9.36 21.84 9.52 21.68Q9.68 21.52 10.20 21.64L10.20 21.64Q10.48 21.76 10.64 22.24Q10.80 22.72 10.88 23.44Q10.96 24.16 11.08 25.04Q11.20 25.92 11.44 26.80L11.44 26.80Q11.64 27.56 11.96 28.70Q12.28 29.84 12.66 31.04Q13.04 32.24 13.46 33.34Q13.88 34.44 14.36 35.08L14.36 35.08Q14.60 35.28 14.94 34.26Q15.28 33.24 15.64 31.52Q16 29.80 16.34 27.64Q16.68 25.48 16.92 23.44Q17.16 21.40 17.26 19.74Q17.36 18.08 17.24 17.32L17.24 17.32Q17.24 16.84 17.30 16.64Q17.36 16.44 17.40 16.34Q17.44 16.24 17.44 16.16Q17.44 16.08 17.36 15.84L17.36 15.84Q17.28 15.68 17.42 15.46Q17.56 15.24 17.78 15.08Q18 14.92 18.26 14.88Q18.52 14.84 18.72 15.04L18.72 15.04Q18.84 15.20 18.84 15.74Q18.84 16.28 18.78 17.12Q18.72 17.96 18.62 19.08Q18.52 20.20 18.48 21.52L18.48 21.52Q18.20 23.56 17.90 25.72Q17.60 27.88 17.28 29.98Q16.96 32.08 16.58 34.04Q16.20 36 15.80 37.56ZM22.20 28.68L22.20 28.68Q22.32 28.64 22.88 28.46Q23.44 28.28 23.80 28.40L23.80 28.40Q24.96 28.36 25.58 29Q26.20 29.64 25.68 31.48L25.68 31.48Q24.92 33.52 23.66 34.88Q22.40 36.24 20.68 37.48L20.68 37.48Q21.08 38.52 21.88 38.64Q22.68 38.76 23.56 38.38Q24.44 38 25.28 37.36Q26.12 36.72 26.64 36.24L26.64 36.24Q27.48 35.52 27.98 35.02Q28.48 34.52 29.04 33.80L29.04 33.80Q29.16 33.72 29.18 33.82Q29.20 33.92 29.16 34.12L29.16 34.12Q29.12 34.32 29.04 34.68L29.04 34.68Q28.92 34.96 28.80 35.18Q28.68 35.40 28.46 35.66Q28.24 35.92 27.88 36.28Q27.52 36.64 27 37.24L27 37.24Q26.40 37.80 25.84 38.34Q25.28 38.88 24.66 39.28Q24.04 39.68 23.30 39.84Q22.56 40 21.60 39.84L21.60 39.84Q20.80 39.56 20.32 39.24Q19.84 38.92 19.58 38.58Q19.32 38.24 19.20 37.96Q19.08 37.68 19.04 37.48L19.04 37.48Q18.84 36.68 18.88 35.32Q18.92 33.96 19.68 31.80L19.68 31.80Q20.20 30.68 20.80 29.90Q21.40 29.12 22.20 28.68ZM20.44 35.76L20.44 35.76Q20.96 35.48 21.66 34.98Q22.36 34.48 22.98 33.82Q23.60 33.16 24.06 32.36Q24.52 31.56 24.56 30.68L24.56 30.68Q24.68 30.08 24.52 29.84L24.52 29.84Q24.44 29.72 24.36 29.72L24.36 29.72Q23.68 29.40 23 29.92Q22.32 30.44 21.76 31.40Q21.20 32.36 20.82 33.54Q20.44 34.72 20.44 35.76ZM31.56 31.72L31.56 31.72Q31.56 31.84 31.68 32.84Q31.80 33.84 31.96 35.28Q32.12 36.72 32.34 38.38Q32.56 40.04 32.74 41.54Q32.92 43.04 33.08 44.18Q33.24 45.32 33.28 45.64L33.28 45.64Q33.04 45.60 32.88 45.56Q32.72 45.52 32.56 45.36Q32.40 45.20 32.18 44.90Q31.96 44.60 31.56 44.04L31.56 44.04Q31.04 40.36 30.74 37.62Q30.44 34.88 30.24 33.16L30.24 33.16Q29.52 34.12 29.20 34.44Q28.88 34.76 28.80 34.76L28.80 34.76Q28.68 34.76 28.76 34.40L28.76 34.40Q28.80 34.20 28.84 34L28.84 34Q28.88 33.80 28.92 33.64Q28.96 33.48 29.04 33.36L29.04 33.36Q29.32 32.96 29.54 32.56Q29.76 32.16 29.88 31.84L29.88 31.84Q30.04 31.44 30.12 31.08L30.12 31.08Q30.08 30.64 30.06 30.32Q30.04 30 30.04 29.66Q30.04 29.32 30.02 28.96Q30.00 28.60 30.00 28.04L30.00 28.04Q30.00 27.52 30.00 26.46Q30.00 25.40 30.00 24.10Q30.00 22.80 30.04 21.36Q30.08 19.92 30.14 18.62Q30.20 17.32 30.30 16.26Q30.40 15.20 30.52 14.64L30.52 14.64Q30.80 13.48 31.38 12.86Q31.96 12.24 32.60 12.14Q33.24 12.04 33.86 12.46Q34.48 12.88 34.80 13.76L34.80 13.76Q35.16 14.64 35.16 16.04Q35.16 17.44 34.92 19.10Q34.68 20.76 34.26 22.56Q33.84 24.36 33.36 26.06Q32.88 27.76 32.40 29.24Q31.92 30.72 31.56 31.72ZM31.24 29.44L31.24 29.44Q32.24 26.52 32.88 23.70Q33.52 20.88 33.82 18.64Q34.12 16.40 34.02 15.02Q33.92 13.64 33.44 13.60L33.44 13.60Q32.68 13.32 32.24 14.12Q31.80 14.92 31.54 16.36Q31.28 17.80 31.20 19.66Q31.12 21.52 31.14 23.36Q31.16 25.20 31.20 26.84Q31.24 28.48 31.24 29.44ZM40.80 28.28L40.80 28.28Q40.84 28.52 40.42 28.76Q40.00 29 39.36 29.46Q38.72 29.92 37.96 30.68Q37.20 31.44 36.60 32.68L36.60 32.68Q35.96 34.04 35.68 35.04Q35.40 36.04 35.80 37.40L35.80 37.40Q35.92 37.68 36.14 37.90Q36.36 38.12 36.80 38.16L36.80 38.16Q37.68 38 38.36 37.72Q39.04 37.44 39.64 37.04Q40.24 36.64 40.80 36.18Q41.36 35.72 41.96 35.24L41.96 35.24Q42.84 34.40 43.42 33.78Q44.00 33.16 44.36 32.74Q44.72 32.32 44.98 32.12Q45.24 31.92 45.52 32L45.52 32Q45.36 32.36 44.62 33.52Q43.88 34.68 42.70 35.98Q41.52 37.28 39.96 38.42Q38.40 39.56 36.60 39.84L36.60 39.84Q35.88 39.80 35.42 39.68Q34.96 39.56 34.56 38.72L34.56 38.72Q34.08 37.72 34.20 36.30Q34.32 34.88 34.80 33.48Q35.28 32.08 36.00 30.88Q36.72 29.68 37.40 29.12L37.40 29.12Q38.36 28.44 39.18 28.28Q40.00 28.12 40.80 28.28ZM45.12 28L45.12 28Q45.88 28.04 46.80 28.22Q47.72 28.40 48.60 28.70Q49.48 29 50.22 29.38Q50.96 29.76 51.44 30.24L51.44 30.24Q51.92 30.68 52.00 31.58Q52.08 32.48 51.88 33.56Q51.68 34.64 51.26 35.78Q50.84 36.92 50.32 37.84Q49.80 38.76 49.20 39.36Q48.60 39.96 48.08 39.96L48.08 39.96Q47.20 39.96 46.60 39.54Q46.00 39.12 45.64 38.52Q45.28 37.92 45.10 37.26Q44.92 36.60 44.88 36.12L44.88 36.12Q44.76 34 44.84 32.36Q44.92 30.72 45.12 29.64L45.12 29.64Q45.00 29.44 44.88 29.28L44.88 29.28Q44.76 29.12 44.64 28.98Q44.52 28.84 44.36 28.72L44.36 28.72Q44.52 28.64 44.68 28.48L44.68 28.48Q45.00 28.24 45.12 28ZM46.56 37.52L46.56 37.52Q46.68 37.68 46.88 37.86Q47.08 38.04 47.38 38.14Q47.68 38.24 48.00 38.16Q48.32 38.08 48.68 37.72L48.68 37.72Q49.64 36.72 50.12 35.66Q50.60 34.60 50.74 33.66Q50.88 32.72 50.70 32Q50.52 31.28 50.12 30.96L50.12 30.96Q49.80 30.76 49.58 30.62Q49.36 30.48 49.02 30.36Q48.68 30.24 48.16 30.10Q47.64 29.96 46.80 29.72L46.80 29.72Q46.40 31 46.24 32.28Q46.08 33.56 46.10 34.62Q46.12 35.68 46.26 36.46Q46.40 37.24 46.56 37.52ZM53.32 26.52L53.32 26.52Q53.32 26.16 53.52 26.10Q53.72 26.04 53.94 26.12Q54.16 26.20 54.38 26.38Q54.60 26.56 54.68 26.64L54.68 26.64Q54.76 27.68 54.60 29.48Q54.44 31.28 54.44 33.96L54.44 33.96Q54.60 33.32 54.92 32.44Q55.24 31.56 55.66 30.66Q56.08 29.76 56.58 28.98Q57.08 28.20 57.56 27.74Q58.04 27.28 58.48 27.28Q58.92 27.28 59.28 27.96L59.28 27.96Q59.36 28.16 59.42 28.78Q59.48 29.40 59.50 30.28Q59.52 31.16 59.56 32.24Q59.60 33.32 59.68 34.44L59.68 34.44Q60.04 33.56 60.50 32.50Q60.96 31.44 61.48 30.58Q62.00 29.72 62.60 29.24Q63.20 28.76 63.88 29.04L63.88 29.04Q64.20 29.16 64.32 29.78Q64.44 30.40 64.52 31.24Q64.60 32.08 64.70 33.02Q64.80 33.96 65.08 34.72Q65.36 35.48 65.88 35.94Q66.40 36.40 67.28 36.28L67.28 36.28Q67.76 36.28 67.98 36.30Q68.20 36.32 68.30 36.36Q68.40 36.40 68.38 36.48Q68.36 36.56 68.36 36.72L68.36 36.72Q66.88 37.48 65.94 37.22Q65.00 36.96 64.46 36.10Q63.92 35.24 63.70 34.02Q63.48 32.80 63.40 31.60L63.40 31.60Q63.32 31.08 63.06 31.16Q62.80 31.24 62.42 31.76Q62.04 32.28 61.60 33.06Q61.16 33.84 60.76 34.72Q60.36 35.60 60.06 36.42Q59.76 37.24 59.60 37.76L59.60 37.76Q59.40 38.12 58.96 37.96Q58.52 37.80 58.40 37.36L58.40 37.36Q58.24 36.72 58.22 35.78Q58.20 34.84 58.22 33.88Q58.24 32.92 58.28 32.02Q58.32 31.12 58.28 30.48Q58.24 29.84 58.12 29.60Q58.00 29.36 57.68 29.72L57.68 29.72Q57.00 30.76 56.42 32.08Q55.84 33.40 55.40 34.82Q54.96 36.24 54.66 37.66Q54.36 39.08 54.28 40.24L54.28 40.24Q53.60 40.40 53.32 40.06Q53.04 39.72 52.84 39.36L52.84 39.36Q52.92 38.84 52.98 37.34Q53.04 35.84 53.10 33.92Q53.16 32 53.22 30Q53.28 28 53.32 26.52ZM70.68 28.68L70.68 28.68Q70.80 28.64 71.36 28.46Q71.92 28.28 72.28 28.40L72.28 28.40Q73.44 28.36 74.06 29Q74.68 29.64 74.16 31.48L74.16 31.48Q73.40 33.52 72.14 34.88Q70.88 36.24 69.16 37.48L69.16 37.48Q69.56 38.52 70.36 38.64Q71.16 38.76 72.04 38.38Q72.92 38 73.76 37.36Q74.60 36.72 75.12 36.24L75.12 36.24Q75.96 35.52 76.46 35.02Q76.96 34.52 77.52 33.80L77.52 33.80Q77.64 33.72 77.66 33.82Q77.68 33.92 77.64 34.12L77.64 34.12Q77.60 34.32 77.52 34.68L77.52 34.68Q77.40 34.96 77.28 35.18Q77.16 35.40 76.94 35.66Q76.72 35.92 76.36 36.28Q76.00 36.64 75.48 37.24L75.48 37.24Q74.88 37.80 74.32 38.34Q73.76 38.88 73.14 39.28Q72.52 39.68 71.78 39.84Q71.04 40 70.08 39.84L70.08 39.84Q69.28 39.56 68.80 39.24Q68.32 38.92 68.06 38.58Q67.80 38.24 67.68 37.96Q67.56 37.68 67.52 37.48L67.52 37.48Q67.32 36.68 67.36 35.32Q67.40 33.96 68.16 31.80L68.16 31.80Q68.68 30.68 69.28 29.90Q69.88 29.12 70.68 28.68ZM68.92 35.76L68.92 35.76Q69.44 35.48 70.14 34.98Q70.84 34.48 71.46 33.82Q72.08 33.16 72.54 32.36Q73.00 31.56 73.04 30.68L73.04 30.68Q73.16 30.08 73.00 29.84L73.00 29.84Q72.92 29.72 72.84 29.72L72.84 29.72Q72.16 29.40 71.48 29.92Q70.80 30.44 70.24 31.40Q69.68 32.36 69.30 33.54Q68.92 34.72 68.92 35.76ZM89.84 28.08L89.84 28.08Q91.56 27.96 93.22 27.82Q94.88 27.68 96.68 27.52L96.68 27.52Q97.08 27.56 97.20 27.94Q97.32 28.32 96.88 28.40L96.88 28.40Q95.40 28.56 93.48 28.84Q91.56 29.12 89.84 29.56L89.84 29.56Q89.92 30.80 89.92 32.10Q89.92 33.40 89.98 34.66Q90.04 35.92 90.22 37.10Q90.40 38.28 90.80 39.28L90.80 39.28Q91.36 39.96 91.92 40.08Q92.48 40.20 92.98 40.02Q93.48 39.84 93.90 39.46Q94.32 39.08 94.64 38.72L94.64 38.72Q94.92 38.44 95.10 38.72Q95.28 39 94.76 39.56L94.76 39.56Q94.52 39.84 94.16 40.16Q93.80 40.48 93.30 40.70Q92.80 40.92 92.18 40.98Q91.56 41.04 90.84 40.84L90.84 40.84Q89.92 40.60 89.48 39.36Q89.04 38.12 88.82 36.46Q88.60 34.80 88.52 33Q88.44 31.20 88.32 29.76L88.32 29.76Q86.56 29.92 85.74 30.04Q84.92 30.16 84.56 30.20Q84.20 30.24 84.08 30.16Q83.96 30.08 83.64 29.80L83.64 29.80Q83.68 29.60 83.66 29.42Q83.64 29.24 83.66 29.12Q83.68 29 83.82 28.88Q83.96 28.76 84.36 28.68L84.36 28.68Q84.96 28.52 86.10 28.50Q87.24 28.48 88.32 28.32L88.32 28.32Q88.28 27.04 88.24 26.32Q88.20 25.60 88.16 25.06Q88.12 24.52 88.10 24Q88.08 23.48 88.08 22.64L88.08 22.64Q88.08 22.44 88.30 22.34Q88.52 22.24 88.80 22.22Q89.08 22.20 89.32 22.30Q89.56 22.40 89.64 22.60L89.64 22.60Q89.76 22.96 89.80 23.66Q89.84 24.36 89.86 25.14Q89.88 25.92 89.88 26.72Q89.88 27.52 89.84 28.08ZM96.96 28L96.96 28Q97.72 28.04 98.64 28.22Q99.56 28.40 100.44 28.70Q101.32 29 102.06 29.38Q102.80 29.76 103.28 30.24L103.28 30.24Q103.76 30.68 103.84 31.58Q103.92 32.48 103.72 33.56Q103.52 34.64 103.10 35.78Q102.68 36.92 102.16 37.84Q101.64 38.76 101.04 39.36Q100.44 39.96 99.92 39.96L99.92 39.96Q99.04 39.96 98.44 39.54Q97.84 39.12 97.48 38.52Q97.12 37.92 96.94 37.26Q96.76 36.60 96.72 36.12L96.72 36.12Q96.60 34 96.68 32.36Q96.76 30.72 96.96 29.64L96.96 29.64Q96.84 29.44 96.72 29.28L96.72 29.28Q96.60 29.12 96.48 28.98Q96.36 28.84 96.20 28.72L96.20 28.72Q96.36 28.64 96.52 28.48L96.52 28.48Q96.84 28.24 96.96 28ZM98.40 37.52L98.40 37.52Q98.52 37.68 98.72 37.86Q98.92 38.04 99.22 38.14Q99.52 38.24 99.84 38.16Q100.16 38.08 100.52 37.72L100.52 37.72Q101.48 36.72 101.96 35.66Q102.44 34.60 102.58 33.66Q102.72 32.72 102.54 32Q102.36 31.28 101.96 30.96L101.96 30.96Q101.64 30.76 101.42 30.62Q101.20 30.48 100.86 30.36Q100.52 30.24 100.00 30.10Q99.48 29.96 98.64 29.72L98.64 29.72Q98.24 31 98.08 32.28Q97.92 33.56 97.94 34.62Q97.96 35.68 98.10 36.46Q98.24 37.24 98.40 37.52ZM118.12 31.24L118.12 31.24Q118.24 31.72 118.28 31.76L118.28 31.76Q118.32 31.84 118.36 31.88L118.36 31.88Q118.56 31.84 119.06 31.50Q119.56 31.16 120.18 30.74Q120.80 30.32 121.42 29.92Q122.04 29.52 122.48 29.32L122.48 29.32Q122.80 29.40 122.82 29.44Q122.84 29.48 122.76 29.56L122.76 29.56Q120.52 31.32 118.60 33.56L118.60 33.56Q118.96 36.84 119.20 38.84Q119.44 40.84 119.58 42.10Q119.72 43.36 119.74 44.14Q119.76 44.92 119.68 45.76L119.68 45.76Q119.60 46.68 119.38 47.26Q119.16 47.84 118.84 48.20Q118.52 48.56 118.14 48.78Q117.76 49 117.40 49.16L117.40 49.16Q116.56 49.40 115.88 49.38Q115.20 49.36 114.66 49.16Q114.12 48.96 113.70 48.62Q113.28 48.28 112.96 47.88L112.96 47.88Q112.60 47.48 112.28 46.82Q111.96 46.16 111.82 45.22Q111.68 44.28 111.80 43.04Q111.92 41.80 112.48 40.20L112.48 40.20Q112.84 39.16 113.28 38.26Q113.72 37.36 114.24 36.52Q114.76 35.68 115.42 34.86Q116.08 34.04 116.88 33.12L116.88 33.12Q116.88 32.80 116.70 31.42Q116.52 30.04 116.24 28.10Q115.96 26.16 115.60 23.90Q115.24 21.64 114.88 19.54Q114.52 17.44 114.20 15.72Q113.88 14 113.68 13.16L113.68 13.16Q113.80 13.12 113.94 12.96Q114.08 12.80 114.22 12.64Q114.36 12.48 114.52 12.34Q114.68 12.20 114.88 12.24L114.88 12.24Q115.00 12.04 115.22 12.82Q115.44 13.60 115.72 15.06Q116.00 16.52 116.30 18.50Q116.60 20.48 116.92 22.66Q117.24 24.84 117.54 27.06Q117.84 29.28 118.12 31.24ZM113.16 45.16L113.16 45.16Q113.44 46 113.76 46.50Q114.08 47 114.44 47.28Q114.80 47.56 115.20 47.70Q115.60 47.84 115.96 47.96L115.96 47.96Q115.88 47.92 116.20 47.98Q116.52 48.04 116.72 47.96L116.72 47.96Q117.16 47.88 117.50 47.62Q117.84 47.36 118.12 47.04L118.12 47.04Q118.52 46.60 118.54 45.40Q118.56 44.20 118.36 42.50Q118.16 40.80 117.82 38.74Q117.48 36.68 117.20 34.52L117.20 34.52Q116.36 35.60 115.58 36.74Q114.80 37.88 114.22 39.16Q113.64 40.44 113.34 41.92Q113.04 43.40 113.16 45.16ZM122.12 28L122.12 28Q122.88 28.04 123.80 28.22Q124.72 28.40 125.60 28.70Q126.48 29 127.22 29.38Q127.96 29.76 128.44 30.24L128.44 30.24Q128.92 30.68 129.00 31.58Q129.08 32.48 128.88 33.56Q128.68 34.64 128.26 35.78Q127.84 36.92 127.32 37.84Q126.80 38.76 126.20 39.36Q125.60 39.96 125.08 39.96L125.08 39.96Q124.20 39.96 123.60 39.54Q123.00 39.12 122.64 38.52Q122.28 37.92 122.10 37.26Q121.92 36.60 121.88 36.12L121.88 36.12Q121.76 34 121.84 32.36Q121.92 30.72 122.12 29.64L122.12 29.64Q122.00 29.44 121.88 29.28L121.88 29.28Q121.76 29.12 121.64 28.98Q121.52 28.84 121.36 28.72L121.36 28.72Q121.52 28.64 121.68 28.48L121.68 28.48Q122.00 28.24 122.12 28ZM123.56 37.52L123.56 37.52Q123.68 37.68 123.88 37.86Q124.08 38.04 124.38 38.14Q124.68 38.24 125.00 38.16Q125.32 38.08 125.68 37.72L125.68 37.72Q126.64 36.72 127.12 35.66Q127.60 34.60 127.74 33.66Q127.88 32.72 127.70 32Q127.52 31.28 127.12 30.96L127.12 30.96Q126.80 30.76 126.58 30.62Q126.36 30.48 126.02 30.36Q125.68 30.24 125.16 30.10Q124.64 29.96 123.80 29.72L123.80 29.72Q123.40 31 123.24 32.28Q123.08 33.56 123.10 34.62Q123.12 35.68 123.26 36.46Q123.40 37.24 123.56 37.52ZM130.92 27.36L130.92 27.36Q130.88 27 131.30 27.18Q131.72 27.36 132.16 27.56L132.16 27.56Q132.32 28.48 132.40 29.02Q132.48 29.56 132.52 30.04Q132.56 30.52 132.60 31.08Q132.64 31.64 132.72 32.56L132.72 32.56Q133.08 31.64 133.60 30.86Q134.12 30.08 134.94 29.52Q135.76 28.96 136.90 28.70Q138.04 28.44 139.64 28.52L139.64 28.52Q139.64 28.84 139.42 29.06Q139.20 29.28 138.40 29.40L138.40 29.40Q137.24 29.60 136.38 30.18Q135.52 30.76 134.90 31.52Q134.28 32.28 133.90 33.14Q133.52 34 133.28 34.72L133.28 34.72Q133.24 35.08 133.18 35.74Q133.12 36.40 133.10 37.14Q133.08 37.88 133.06 38.58Q133.04 39.28 133.12 39.68L133.12 39.68Q133.16 39.88 132.94 39.98Q132.72 40.08 132.44 40.12Q132.16 40.16 131.92 40.08Q131.68 40 131.68 39.80L131.68 39.80Q131.76 35.68 131.46 32.70Q131.16 29.72 130.92 27.36ZM151.76 18.96L151.76 18.96Q151.64 19.68 151.48 20.48Q151.32 21.28 151.14 22Q150.96 22.72 150.84 23.24Q150.72 23.76 150.68 23.88L150.68 23.88Q150.44 24.56 150.04 25.64Q149.64 26.72 149.10 27.90Q148.56 29.08 147.88 30.26Q147.20 31.44 146.48 32.28L146.48 32.28Q146.48 32.88 146.62 34.30Q146.76 35.72 146.96 37.36Q147.16 39 147.34 40.58Q147.52 42.16 147.56 43.04L147.56 43.04Q147.36 43.24 147.20 42.96Q147.04 42.68 146.72 42L146.72 42Q146.48 40.96 146.34 40.08Q146.20 39.20 146.08 38.30Q145.96 37.40 145.82 36.40Q145.68 35.40 145.40 34.12L145.40 34.12Q144.64 35.08 143.58 36.30Q142.52 37.52 141.38 38.46Q140.24 39.40 139.14 39.78Q138.04 40.16 137.24 39.44L137.24 39.44Q136.76 38.80 136.82 37.94Q136.88 37.08 137.30 36.18Q137.72 35.28 138.38 34.40Q139.04 33.52 139.72 32.76Q140.40 32 141.00 31.44Q141.60 30.88 141.88 30.64L141.88 30.64Q142.44 30.28 142.82 30.06Q143.20 29.84 143.50 29.70Q143.80 29.56 144.12 29.50Q144.44 29.44 144.92 29.48L144.92 29.48Q144.84 28.56 144.82 27.28Q144.80 26 144.82 24.70Q144.84 23.40 144.90 22.28Q144.96 21.16 145.08 20.56L145.08 20.56Q145.16 19.68 145.46 18.72Q145.76 17.76 146.22 16.86Q146.68 15.96 147.24 15.26Q147.80 14.56 148.46 14.26Q149.12 13.96 149.82 14.12Q150.52 14.28 151.20 15.12L151.20 15.12Q151.76 15.80 151.76 16.82Q151.76 17.84 151.76 18.96ZM146.48 29.64L146.48 29.64Q147.20 28.84 147.68 27.94Q148.16 27.04 148.76 25.80L148.76 25.80Q149.28 24.72 149.70 23.04Q150.12 21.36 150.28 19.74Q150.44 18.12 150.28 16.92Q150.12 15.72 149.48 15.64L149.48 15.64Q148.92 15.56 148.44 16.06Q147.96 16.56 147.56 17.30Q147.16 18.04 146.88 18.88Q146.60 19.72 146.48 20.36L146.48 20.36Q146.32 21.16 146.26 21.80Q146.20 22.44 146.18 23.14Q146.16 23.84 146.12 24.66Q146.08 25.48 145.96 26.68L145.96 26.68Q145.96 27.28 146.02 27.88Q146.08 28.48 146.18 28.90Q146.28 29.32 146.36 29.54Q146.44 29.76 146.48 29.64ZM140.68 33.36L140.68 33.36Q139.60 34.48 139.10 35.42Q138.60 36.36 138.28 37.16L138.28 37.16Q138.28 37.28 138.28 37.54Q138.28 37.80 138.34 38.04Q138.40 38.28 138.58 38.46Q138.76 38.64 139.16 38.56L139.16 38.56Q139.56 38.40 139.82 38.24Q140.08 38.08 140.30 37.90Q140.52 37.72 140.78 37.52Q141.04 37.32 141.44 37L141.44 37Q142.00 36.40 142.82 35.64Q143.64 34.88 144.26 34.04Q144.88 33.20 145.08 32.32Q145.28 31.44 144.56 30.60L144.56 30.60Q144.28 30.60 143.98 30.68Q143.68 30.76 143.24 31.06Q142.80 31.36 142.18 31.90Q141.56 32.44 140.68 33.36ZM158.00 28.24L158.00 28.24Q157.96 28.48 157.82 29.24Q157.68 30 157.52 31.02Q157.36 32.04 157.24 33.16Q157.12 34.28 157.10 35.28Q157.08 36.28 157.22 36.98Q157.36 37.68 157.68 37.84L157.68 37.84Q158.60 38.28 159.56 37.54Q160.52 36.80 161.80 35.28L161.80 35.28Q161.92 35.28 161.82 35.60Q161.72 35.92 161.50 36.30Q161.28 36.68 161.06 37.06Q160.84 37.44 160.72 37.56L160.72 37.56Q160.40 37.96 159.80 38.46Q159.20 38.96 158.52 39.26Q157.84 39.56 157.22 39.52Q156.60 39.48 156.20 38.80L156.20 38.80Q156.00 38.32 155.96 37.62Q155.92 36.92 155.96 36.20Q156.00 35.48 156.08 34.88Q156.16 34.28 156.20 34L156.20 34Q155.36 35.56 154.28 36.96Q153.20 38.36 152.16 39.16Q151.12 39.96 150.24 40.02Q149.36 40.08 148.88 39L148.88 39Q148.60 37.96 148.88 36.66Q149.16 35.36 149.72 34.32L149.72 34.32Q150.56 32.88 151.48 31.68Q152.40 30.48 153.44 29.64Q154.48 28.80 155.62 28.42Q156.76 28.04 158.00 28.24ZM150.48 38.40L150.48 38.40Q150.88 38.48 151.76 37.80Q152.64 37.12 153.60 35.90Q154.56 34.68 155.34 33.06Q156.12 31.44 156.36 29.64L156.36 29.64Q156.20 29.64 155.90 29.64Q155.60 29.64 155.20 29.88L155.20 29.88Q153.68 30.88 152.60 32.22Q151.52 33.56 150.92 34.82Q150.32 36.08 150.20 37.08Q150.08 38.08 150.48 38.40ZM163.00 27.80L163.00 27.80Q163.00 28.92 162.98 30.04Q162.96 31.16 162.94 32.20Q162.92 33.24 162.90 34.16Q162.88 35.08 162.84 35.80L162.84 35.80Q162.84 35.64 163.02 35.02Q163.20 34.40 163.52 33.60Q163.84 32.80 164.22 31.90Q164.60 31 165.04 30.30Q165.48 29.60 165.94 29.20Q166.40 28.80 166.80 28.96L166.80 28.96Q167.68 29.36 168.04 30.12Q168.40 30.88 168.56 31.86Q168.72 32.84 168.88 34.04Q169.04 35.24 169.60 36.56L169.60 36.56Q169.84 37.16 170.30 37.44Q170.76 37.72 171.18 37.84Q171.60 37.96 171.86 37.98Q172.12 38 172.04 38.12L172.04 38.12Q171.04 38.88 170.32 38.64Q169.60 38.40 169.10 37.58Q168.60 36.76 168.28 35.62Q167.96 34.48 167.70 33.42Q167.44 32.36 167.24 31.62Q167.04 30.88 166.80 30.88L166.80 30.88Q166.44 30.92 166.02 31.56Q165.60 32.20 165.16 33.16Q164.72 34.12 164.32 35.26Q163.92 36.40 163.58 37.40Q163.24 38.40 163.04 39.12Q162.84 39.84 162.80 40L162.80 40Q162.20 40 162.06 40.04Q161.92 40.08 161.60 39.64L161.60 39.64Q161.80 36.12 161.74 32.98Q161.68 29.84 161.56 27.52L161.56 27.52Q161.56 27.16 161.74 27.16Q161.92 27.16 162.14 27.32Q162.36 27.48 162.60 27.64Q162.84 27.80 163.00 27.80ZM187.44 29.04L187.44 29.04Q187.60 29.12 187.82 29.24Q188.04 29.36 188.24 29.60Q188.44 29.84 188.58 30.22Q188.72 30.60 188.72 31.20L188.72 31.20Q188.64 33.28 187.68 34.96Q186.72 36.64 185.38 37.80Q184.04 38.96 182.60 39.52Q181.16 40.08 180.16 39.92L180.16 39.92Q180.16 43.80 180.22 46.40Q180.28 49 180.30 50.66Q180.32 52.32 180.30 53.16Q180.28 54 180.18 54.32Q180.08 54.64 179.82 54.62Q179.56 54.60 179.16 54.52L179.16 54.52Q179.08 54.64 179.04 54.32L179.04 54.32Q179.00 54.04 178.98 53.32Q178.96 52.60 178.96 51.08L178.96 51.08Q178.96 50.96 178.94 49.70Q178.92 48.44 178.90 46.54Q178.88 44.64 178.82 42.36Q178.76 40.08 178.68 37.92Q178.60 35.76 178.50 33.92Q178.40 32.08 178.24 31.08L178.24 31.08Q178.24 31 178.20 30.68Q178.16 30.36 178.10 29.88Q178.04 29.40 177.94 28.84Q177.84 28.28 177.72 27.76L177.72 27.76Q178.40 27.72 178.64 27.90Q178.88 28.08 179.12 28.32L179.12 28.32Q179.36 29.08 179.58 30.76Q179.80 32.44 180.08 35.32L180.08 35.32Q180.16 34.92 180.50 34.20Q180.84 33.48 181.40 32.66Q181.96 31.84 182.68 31.04Q183.40 30.24 184.20 29.68Q185.00 29.12 185.82 28.90Q186.64 28.68 187.44 29.04ZM182.40 38.04L182.40 38.04Q184.24 37.28 185.30 36.08Q186.36 34.88 186.84 33.70Q187.32 32.52 187.32 31.60Q187.32 30.68 186.96 30.44L186.96 30.44Q186.16 29.92 185.44 30.32Q184.72 30.72 184.04 31.28L184.04 31.28Q183.68 31.60 183.04 32.42Q182.40 33.24 181.76 34.24Q181.12 35.24 180.66 36.26Q180.20 37.28 180.20 38.04L180.20 38.04Q180.36 38.24 180.68 38.32L180.68 38.32Q180.92 38.40 181.34 38.36Q181.76 38.32 182.40 38.04ZM191.00 28L191.00 28Q191.76 28.04 192.68 28.22Q193.60 28.40 194.48 28.70Q195.36 29 196.10 29.38Q196.84 29.76 197.32 30.24L197.32 30.24Q197.80 30.68 197.88 31.58Q197.96 32.48 197.76 33.56Q197.56 34.64 197.14 35.78Q196.72 36.92 196.20 37.84Q195.68 38.76 195.08 39.36Q194.48 39.96 193.96 39.96L193.96 39.96Q193.08 39.96 192.48 39.54Q191.88 39.12 191.52 38.52Q191.16 37.92 190.98 37.26Q190.80 36.60 190.76 36.12L190.76 36.12Q190.64 34 190.72 32.36Q190.80 30.72 191.00 29.64L191.00 29.64Q190.88 29.44 190.76 29.28L190.76 29.28Q190.64 29.12 190.52 28.98Q190.40 28.84 190.24 28.72L190.24 28.72Q190.40 28.64 190.56 28.48L190.56 28.48Q190.88 28.24 191.00 28ZM192.44 37.52L192.44 37.52Q192.56 37.68 192.76 37.86Q192.96 38.04 193.26 38.14Q193.56 38.24 193.88 38.16Q194.20 38.08 194.56 37.72L194.56 37.72Q195.52 36.72 196.00 35.66Q196.48 34.60 196.62 33.66Q196.76 32.72 196.58 32Q196.40 31.28 196.00 30.96L196.00 30.96Q195.68 30.76 195.46 30.62Q195.24 30.48 194.90 30.36Q194.56 30.24 194.04 30.10Q193.52 29.96 192.68 29.72L192.68 29.72Q192.28 31 192.12 32.28Q191.96 33.56 191.98 34.62Q192.00 35.68 192.14 36.46Q192.28 37.24 192.44 37.52ZM199.80 27.36L199.80 27.36Q199.76 27 200.18 27.18Q200.60 27.36 201.04 27.56L201.04 27.56Q201.20 28.48 201.28 29.02Q201.36 29.56 201.40 30.04Q201.44 30.52 201.48 31.08Q201.52 31.64 201.60 32.56L201.60 32.56Q201.96 31.64 202.48 30.86Q203.00 30.08 203.82 29.52Q204.64 28.96 205.78 28.70Q206.92 28.44 208.52 28.52L208.52 28.52Q208.52 28.84 208.30 29.06Q208.08 29.28 207.28 29.40L207.28 29.40Q206.12 29.60 205.26 30.18Q204.40 30.76 203.78 31.52Q203.16 32.28 202.78 33.14Q202.40 34 202.16 34.72L202.16 34.72Q202.12 35.08 202.06 35.74Q202.00 36.40 201.98 37.14Q201.96 37.88 201.94 38.58Q201.92 39.28 202.00 39.68L202.00 39.68Q202.04 39.88 201.82 39.98Q201.60 40.08 201.32 40.12Q201.04 40.16 200.80 40.08Q200.56 40 200.56 39.80L200.56 39.80Q200.64 35.68 200.34 32.70Q200.04 29.72 199.80 27.36ZM214.12 28.08L214.12 28.08Q215.84 27.96 217.50 27.82Q219.16 27.68 220.96 27.52L220.96 27.52Q221.36 27.56 221.48 27.94Q221.60 28.32 221.16 28.40L221.16 28.40Q219.68 28.56 217.76 28.84Q215.84 29.12 214.12 29.56L214.12 29.56Q214.20 30.80 214.20 32.10Q214.20 33.40 214.26 34.66Q214.32 35.92 214.50 37.10Q214.68 38.28 215.08 39.28L215.08 39.28Q215.64 39.96 216.20 40.08Q216.76 40.20 217.26 40.02Q217.76 39.84 218.18 39.46Q218.60 39.08 218.92 38.72L218.92 38.72Q219.20 38.44 219.38 38.72Q219.56 39 219.04 39.56L219.04 39.56Q218.80 39.84 218.44 40.16Q218.08 40.48 217.58 40.70Q217.08 40.92 216.46 40.98Q215.84 41.04 215.12 40.84L215.12 40.84Q214.20 40.60 213.76 39.36Q213.32 38.12 213.10 36.46Q212.88 34.80 212.80 33Q212.72 31.20 212.60 29.76L212.60 29.76Q210.84 29.92 210.02 30.04Q209.20 30.16 208.84 30.20Q208.48 30.24 208.36 30.16Q208.24 30.08 207.92 29.80L207.92 29.80Q207.96 29.60 207.94 29.42Q207.92 29.24 207.94 29.12Q207.96 29 208.10 28.88Q208.24 28.76 208.64 28.68L208.64 28.68Q209.24 28.52 210.38 28.50Q211.52 28.48 212.60 28.32L212.60 28.32Q212.56 27.04 212.52 26.32Q212.48 25.60 212.44 25.06Q212.40 24.52 212.38 24Q212.36 23.48 212.36 22.64L212.36 22.64Q212.36 22.44 212.58 22.34Q212.80 22.24 213.08 22.22Q213.36 22.20 213.60 22.30Q213.84 22.40 213.92 22.60L213.92 22.60Q214.04 22.96 214.08 23.66Q214.12 24.36 214.14 25.14Q214.16 25.92 214.16 26.72Q214.16 27.52 214.12 28.08ZM231.20 18.60L231.20 18.60Q230.76 18.60 230.58 18.60Q230.40 18.60 230.34 18.58Q230.28 18.56 230.28 18.52Q230.28 18.48 230.24 18.40L230.24 18.40Q230.16 18.40 230.02 18.02Q229.88 17.64 229.64 17.20Q229.40 16.76 229.02 16.38Q228.64 16 228.12 16L228.12 16Q227.00 15.72 226.28 16.30Q225.56 16.88 225.10 17.98Q224.64 19.08 224.42 20.52Q224.20 21.96 224.10 23.42Q224.00 24.88 224.00 26.22Q224.00 27.56 223.96 28.40L223.96 28.40Q224.72 28.36 225.22 28.34Q225.72 28.32 226.14 28.30Q226.56 28.28 226.92 28.26Q227.28 28.24 227.72 28.24L227.72 28.24Q227.92 28.28 228.12 28.48Q228.32 28.68 228.46 28.92Q228.60 29.16 228.66 29.36Q228.72 29.56 228.64 29.56L228.64 29.56Q227.92 29.68 227.36 29.72Q226.80 29.76 226.28 29.80Q225.76 29.84 225.22 29.86Q224.68 29.88 224.00 29.92L224.00 29.92Q224.04 31.96 224.16 33.58Q224.28 35.20 224.38 36.66Q224.48 38.12 224.58 39.52Q224.68 40.92 224.72 42.48L224.72 42.48Q224.64 42.80 224.30 42.78Q223.96 42.76 223.60 42.72L223.60 42.72Q223.48 42.72 223.44 42.68Q223.40 42.64 223.38 42.32Q223.36 42 223.34 41.24Q223.32 40.48 223.26 39.08Q223.20 37.68 223.08 35.48Q222.96 33.28 222.72 30.04L222.72 30.04Q221.80 30.12 221.24 30.16Q220.68 30.20 220.26 30.22Q219.84 30.24 219.44 30.24Q219.04 30.24 218.44 30.28L218.44 30.28Q218.16 30.28 218.16 30.14Q218.16 30 218.26 29.78Q218.36 29.56 218.50 29.36Q218.64 29.16 218.68 29.08L218.68 29.08Q218.92 29 220.08 28.88Q221.24 28.76 222.64 28.60L222.64 28.60Q222.44 24.76 222.70 22.18Q222.96 19.60 223.46 18Q223.96 16.40 224.60 15.62Q225.24 14.84 225.80 14.60L225.80 14.60Q227.20 14.04 228.30 14.54Q229.40 15.04 230.12 15.88Q230.84 16.72 231.14 17.58Q231.44 18.44 231.20 18.60ZM229.16 28L229.16 28Q229.92 28.04 230.84 28.22Q231.76 28.40 232.64 28.70Q233.52 29 234.26 29.38Q235.00 29.76 235.48 30.24L235.48 30.24Q235.96 30.68 236.04 31.58Q236.12 32.48 235.92 33.56Q235.72 34.64 235.30 35.78Q234.88 36.92 234.36 37.84Q233.84 38.76 233.24 39.36Q232.64 39.96 232.12 39.96L232.12 39.96Q231.24 39.96 230.64 39.54Q230.04 39.12 229.68 38.52Q229.32 37.92 229.14 37.26Q228.96 36.60 228.92 36.12L228.92 36.12Q228.80 34 228.88 32.36Q228.96 30.72 229.16 29.64L229.16 29.64Q229.04 29.44 228.92 29.28L228.92 29.28Q228.80 29.12 228.68 28.98Q228.56 28.84 228.40 28.72L228.40 28.72Q228.56 28.64 228.72 28.48L228.72 28.48Q229.04 28.24 229.16 28ZM230.60 37.52L230.60 37.52Q230.72 37.68 230.92 37.86Q231.12 38.04 231.42 38.14Q231.72 38.24 232.04 38.16Q232.36 38.08 232.72 37.72L232.72 37.72Q233.68 36.72 234.16 35.66Q234.64 34.60 234.78 33.66Q234.92 32.72 234.74 32Q234.56 31.28 234.16 30.96L234.16 30.96Q233.84 30.76 233.62 30.62Q233.40 30.48 233.06 30.36Q232.72 30.24 232.20 30.10Q231.68 29.96 230.84 29.72L230.84 29.72Q230.44 31 230.28 32.28Q230.12 33.56 230.14 34.62Q230.16 35.68 230.30 36.46Q230.44 37.24 230.60 37.52ZM240.16 31.72L240.16 31.72Q240.16 31.84 240.28 32.84Q240.40 33.84 240.56 35.28Q240.72 36.72 240.94 38.38Q241.16 40.04 241.34 41.54Q241.52 43.04 241.68 44.18Q241.84 45.32 241.88 45.64L241.88 45.64Q241.64 45.60 241.48 45.56Q241.32 45.52 241.16 45.36Q241.00 45.20 240.78 44.90Q240.56 44.60 240.16 44.04L240.16 44.04Q239.64 40.36 239.34 37.62Q239.04 34.88 238.84 33.16L238.84 33.16Q238.12 34.12 237.80 34.44Q237.48 34.76 237.40 34.76L237.40 34.76Q237.28 34.76 237.36 34.40L237.36 34.40Q237.40 34.20 237.44 34L237.44 34Q237.48 33.80 237.52 33.64Q237.56 33.48 237.64 33.36L237.64 33.36Q237.92 32.96 238.14 32.56Q238.36 32.16 238.48 31.84L238.48 31.84Q238.64 31.44 238.72 31.08L238.72 31.08Q238.68 30.64 238.66 30.32Q238.64 30 238.64 29.66Q238.64 29.32 238.62 28.96Q238.60 28.60 238.60 28.04L238.60 28.04Q238.60 27.52 238.60 26.46Q238.60 25.40 238.60 24.10Q238.60 22.80 238.64 21.36Q238.68 19.92 238.74 18.62Q238.80 17.32 238.90 16.26Q239.00 15.20 239.12 14.64L239.12 14.64Q239.40 13.48 239.98 12.86Q240.56 12.24 241.20 12.14Q241.84 12.04 242.46 12.46Q243.08 12.88 243.40 13.76L243.40 13.76Q243.76 14.64 243.76 16.04Q243.76 17.44 243.52 19.10Q243.28 20.76 242.86 22.56Q242.44 24.36 241.96 26.06Q241.48 27.76 241.00 29.24Q240.52 30.72 240.16 31.72ZM239.84 29.44L239.84 29.44Q240.84 26.52 241.48 23.70Q242.12 20.88 242.42 18.64Q242.72 16.40 242.62 15.02Q242.52 13.64 242.04 13.60L242.04 13.60Q241.28 13.32 240.84 14.12Q240.40 14.92 240.14 16.36Q239.88 17.80 239.80 19.66Q239.72 21.52 239.74 23.36Q239.76 25.20 239.80 26.84Q239.84 28.48 239.84 29.44ZM246.20 22.40L246.20 22.40Q246.60 22.32 246.68 22.88Q246.76 23.44 246.52 23.72L246.52 23.72Q246.08 24.08 245.96 24.34Q245.84 24.60 245.40 24.68L245.40 24.68Q245.16 24.64 244.98 24.66Q244.80 24.68 244.68 24L244.68 24Q244.84 23.56 245.18 23.12Q245.52 22.68 246.20 22.40ZM246.32 27.60L246.32 27.60Q246.52 29.52 246.60 31.82Q246.68 34.12 246.88 36.64L246.88 36.64Q247.04 37.92 247.20 38.64Q247.36 39.36 247.44 40L247.44 40Q246.80 40.12 246.44 39.98Q246.08 39.84 245.76 39.64L245.76 39.64Q245.68 39 245.58 37.52Q245.48 36.04 245.38 34.30Q245.28 32.56 245.18 30.92Q245.08 29.28 245.00 28.32L245.00 28.32Q245.16 28.24 245.26 28.08Q245.36 27.92 245.48 27.80Q245.60 27.68 245.80 27.60Q246.00 27.52 246.32 27.60ZM249.16 28L249.16 28Q249.92 28.04 250.84 28.22Q251.76 28.40 252.64 28.70Q253.52 29 254.26 29.38Q255.00 29.76 255.48 30.24L255.48 30.24Q255.96 30.68 256.04 31.58Q256.12 32.48 255.92 33.56Q255.72 34.64 255.30 35.78Q254.88 36.92 254.36 37.84Q253.84 38.76 253.24 39.36Q252.64 39.96 252.12 39.96L252.12 39.96Q251.24 39.96 250.64 39.54Q250.04 39.12 249.68 38.52Q249.32 37.92 249.14 37.26Q248.96 36.60 248.92 36.12L248.92 36.12Q248.80 34 248.88 32.36Q248.96 30.72 249.16 29.64L249.16 29.64Q249.04 29.44 248.92 29.28L248.92 29.28Q248.80 29.12 248.68 28.98Q248.56 28.84 248.40 28.72L248.40 28.72Q248.56 28.64 248.72 28.48L248.72 28.48Q249.04 28.24 249.16 28ZM250.60 37.52L250.60 37.52Q250.72 37.68 250.92 37.86Q251.12 38.04 251.42 38.14Q251.72 38.24 252.04 38.16Q252.36 38.08 252.72 37.72L252.72 37.72Q253.68 36.72 254.16 35.66Q254.64 34.60 254.78 33.66Q254.92 32.72 254.74 32Q254.56 31.28 254.16 30.96L254.16 30.96Q253.84 30.76 253.62 30.62Q253.40 30.48 253.06 30.36Q252.72 30.24 252.20 30.10Q251.68 29.96 250.84 29.72L250.84 29.72Q250.44 31 250.28 32.28Q250.12 33.56 250.14 34.62Q250.16 35.68 250.30 36.46Q250.44 37.24 250.60 37.52Z" fill="black"></path></svg>